<svg xmlns="http://www.w3.org/2000/svg" xmlns:xlink="http://www.w3.org/1999/xlink" width="500" zoomAndPan="magnify" viewBox="0 0 375 374.999991" height="500" preserveAspectRatio="xMidYMid meet" version="1.2"><defs/><g id="a8610b5ba0"><g style="fill:#747474;fill-opacity:1;"><g transform="translate(30.005088, 244.368934)"><path style="stroke:none" d="M -8.890625 32.71875 C -13.117188 30.820312 -14.894531 29.125 -14.21875 27.625 C -14 27.132812 -13.15625 26.925781 -11.6875 27 C 15.90625 28.050781 45.585938 23.109375 77.359375 12.171875 C 109.128906 1.234375 138.539062 -13.078125 165.59375 -30.765625 C 192.65625 -48.453125 217 -68.40625 238.625 -90.625 C 260.25 -112.84375 275.800781 -134.5 285.28125 -155.59375 C 290.53125 -167.257812 293.632812 -177.804688 294.59375 -187.234375 C 294.5625 -187.847656 294.960938 -189.082031 295.796875 -190.9375 C 296.640625 -192.800781 297.742188 -193.425781 299.109375 -192.8125 C 300.472656 -192.195312 301.273438 -190.492188 301.515625 -187.703125 C 301.523438 -169.796875 296.925781 -150.597656 287.71875 -130.109375 C 278.519531 -109.628906 261.765625 -88.285156 237.453125 -66.078125 C 213.140625 -43.867188 186.726562 -25.289062 158.21875 -10.34375 C 129.71875 4.59375 100.398438 16.03125 70.265625 23.96875 C 40.128906 31.914062 13.742188 34.832031 -8.890625 32.71875 Z M -8.890625 32.71875 "/></g></g><g style="fill:#0275de;fill-opacity:1;"><g transform="translate(131.34624, 301.36143)"><path style="stroke:none" d="M 13.96875 -28.265625 L 21.359375 -7.640625 L 18.078125 -6.46875 L 16.734375 -10.203125 C 16.609375 -8.710938 16.0625 -7.394531 15.09375 -6.25 C 14.125 -5.113281 12.832031 -4.253906 11.21875 -3.671875 C 9.394531 -3.023438 7.628906 -2.894531 5.921875 -3.28125 C 4.222656 -3.664062 2.710938 -4.519531 1.390625 -5.84375 C 0.078125 -7.175781 -0.960938 -8.90625 -1.734375 -11.03125 C -2.492188 -13.164062 -2.78125 -15.179688 -2.59375 -17.078125 C -2.414062 -18.984375 -1.796875 -20.628906 -0.734375 -22.015625 C 0.316406 -23.410156 1.742188 -24.429688 3.546875 -25.078125 C 5.160156 -25.660156 6.695312 -25.8125 8.15625 -25.53125 C 9.613281 -25.257812 10.882812 -24.585938 11.96875 -23.515625 L 10.6875 -27.09375 Z M 10.890625 -6.671875 C 12.910156 -7.390625 14.21875 -8.632812 14.8125 -10.40625 C 15.414062 -12.1875 15.257812 -14.347656 14.34375 -16.890625 C 13.4375 -19.421875 12.191406 -21.175781 10.609375 -22.15625 C 9.023438 -23.132812 7.222656 -23.265625 5.203125 -22.546875 C 3.179688 -21.816406 1.851562 -20.546875 1.21875 -18.734375 C 0.59375 -16.921875 0.726562 -14.753906 1.625 -12.234375 C 2.53125 -9.722656 3.785156 -7.984375 5.390625 -7.015625 C 7.003906 -6.046875 8.835938 -5.929688 10.890625 -6.671875 Z M 10.890625 -6.671875 "/></g></g><g style="fill:#0275de;fill-opacity:1;"><g transform="translate(201.351532, 280.240743)"><path style="stroke:none" d="M 3.75 -39.078125 L 19.6875 -11.28125 L 16.65625 -9.546875 L 14.6875 -12.984375 C 14.8125 -11.492188 14.5 -10.101562 13.75 -8.8125 C 13 -7.519531 11.878906 -6.445312 10.390625 -5.59375 C 8.722656 -4.644531 7.015625 -4.21875 5.265625 -4.3125 C 3.523438 -4.414062 1.867188 -5.015625 0.296875 -6.109375 C -1.265625 -7.210938 -2.609375 -8.75 -3.734375 -10.71875 C -4.859375 -12.6875 -5.492188 -14.601562 -5.640625 -16.46875 C -5.796875 -18.34375 -5.460938 -20.046875 -4.640625 -21.578125 C -3.828125 -23.117188 -2.585938 -24.363281 -0.921875 -25.3125 C 0.566406 -26.164062 2.050781 -26.585938 3.53125 -26.578125 C 5.007812 -26.578125 6.359375 -26.160156 7.578125 -25.328125 L 0.6875 -37.328125 Z M 9.546875 -8.484375 C 11.410156 -9.546875 12.476562 -11.003906 12.75 -12.859375 C 13.03125 -14.710938 12.5 -16.804688 11.15625 -19.140625 C 9.832031 -21.453125 8.300781 -22.957031 6.5625 -23.65625 C 4.820312 -24.351562 3.019531 -24.171875 1.15625 -23.109375 C -0.707031 -22.035156 -1.800781 -20.566406 -2.125 -18.703125 C -2.445312 -16.847656 -1.953125 -14.773438 -0.640625 -12.484375 C 0.703125 -10.140625 2.269531 -8.617188 4.0625 -7.921875 C 5.851562 -7.222656 7.679688 -7.410156 9.546875 -8.484375 Z M 9.546875 -8.484375 "/></g></g><g style="fill:#0275de;fill-opacity:1;"><g transform="translate(266.822738, 240.03982)"><path style="stroke:none" d="M -2.421875 -39.1875 L 17.671875 -14.21875 L 14.96875 -12.03125 L 12.484375 -15.125 C 12.835938 -13.664062 12.742188 -12.238281 12.203125 -10.84375 C 11.671875 -9.457031 10.734375 -8.222656 9.390625 -7.140625 C 7.898438 -5.941406 6.28125 -5.257812 4.53125 -5.09375 C 2.789062 -4.925781 1.0625 -5.257812 -0.65625 -6.09375 C -2.375 -6.925781 -3.941406 -8.226562 -5.359375 -10 C -6.785156 -11.757812 -7.71875 -13.550781 -8.15625 -15.375 C -8.59375 -17.195312 -8.523438 -18.929688 -7.953125 -20.578125 C -7.378906 -22.234375 -6.347656 -23.660156 -4.859375 -24.859375 C -3.515625 -25.941406 -2.113281 -26.59375 -0.65625 -26.8125 C 0.800781 -27.03125 2.191406 -26.820312 3.515625 -26.1875 L -5.171875 -36.96875 Z M 8.09375 -9.859375 C 9.769531 -11.210938 10.601562 -12.820312 10.59375 -14.6875 C 10.582031 -16.5625 9.726562 -18.550781 8.03125 -20.65625 C 6.363281 -22.726562 4.613281 -23.972656 2.78125 -24.390625 C 0.957031 -24.816406 -0.789062 -24.351562 -2.46875 -23 C -4.132812 -21.65625 -4.984375 -20.035156 -5.015625 -18.140625 C -5.046875 -16.253906 -4.234375 -14.285156 -2.578125 -12.234375 C -0.890625 -10.128906 0.890625 -8.867188 2.765625 -8.453125 C 4.648438 -8.046875 6.425781 -8.515625 8.09375 -9.859375 Z M 8.09375 -9.859375 "/></g></g><g style="fill:#0275de;fill-opacity:1;"><g transform="translate(315.720445, 185.726642)"><path style="stroke:none" d="M -1.515625 -31.46875 L 9.6875 -8.015625 C 10.863281 -5.546875 11.347656 -3.316406 11.140625 -1.328125 C 10.941406 0.648438 10.222656 2.679688 8.984375 4.765625 L 6.421875 3.515625 C 7.441406 1.648438 8.007812 0.0664062 8.125 -1.234375 C 8.25 -2.535156 7.9375 -3.976562 7.1875 -5.5625 L 6.296875 -7.5 L -16.109375 -14.84375 L -13.671875 -17.625 L 4.796875 -11.265625 L -3.84375 -28.8125 Z M -1.515625 -31.46875 "/></g></g><g style="fill:#747474;fill-opacity:1;"><g transform="translate(63.012754, 136.593354)"><path style="stroke:none" d="M 114.5625 -28.015625 C 113.300781 -26.410156 109.960938 -25.140625 104.546875 -24.203125 C 99.128906 -23.273438 94.65625 -24.195312 91.125 -26.96875 C 87.601562 -29.75 87.101562 -32.742188 89.625 -35.953125 C 92.15625 -39.160156 96.109375 -40.988281 101.484375 -41.4375 C 106.867188 -41.882812 110.679688 -41.222656 112.921875 -39.453125 C 115.171875 -37.691406 116.320312 -35.742188 116.375 -33.609375 C 116.4375 -31.484375 115.832031 -29.617188 114.5625 -28.015625 Z M 37.46875 13.125 C 36.207031 14.726562 32.867188 16 27.453125 16.9375 C 22.046875 17.875 17.578125 16.953125 14.046875 14.171875 C 10.515625 11.390625 10.007812 8.394531 12.53125 5.1875 C 15.0625 1.976562 19.015625 0.15625 24.390625 -0.28125 C 29.765625 -0.726562 33.578125 -0.0664062 35.828125 1.703125 C 38.078125 3.472656 39.226562 5.414062 39.28125 7.53125 C 39.332031 9.65625 38.726562 11.519531 37.46875 13.125 Z M 37.46875 13.125 "/></g></g></g></svg>