<svg xmlns="http://www.w3.org/2000/svg" fill="none" viewBox="0 40.53 464.39 116.3">
<rect y="68" width="88" height="87" fill="#ED805E"/>
<path d="M137.482 101.721C137.482 93.805 138.548 86.4981 140.679 79.8002C142.912 73.0007 146.058 67.1654 150.117 62.2942C154.278 57.3214 159.352 53.465 165.34 50.725C171.327 47.9849 178.127 46.6148 185.738 46.6148C193.349 46.6148 200.149 47.9849 206.136 50.725C212.124 53.465 217.147 57.3214 221.207 62.2942C225.368 67.1654 228.514 73.0007 230.645 79.8002C232.878 86.4981 233.994 93.805 233.994 101.721C233.994 109.637 232.878 116.994 230.645 123.794C228.514 130.492 225.368 136.327 221.207 141.3C217.147 146.171 212.124 149.977 206.136 152.717C200.149 155.457 193.349 156.827 185.738 156.827C178.127 156.827 171.327 155.457 165.34 152.717C159.352 149.977 154.278 146.171 150.117 141.3C146.058 136.327 142.912 130.492 140.679 123.794C138.548 116.994 137.482 109.637 137.482 101.721ZM153.771 101.721C153.771 108.216 154.43 114.356 155.749 120.14C157.17 125.823 159.251 130.796 161.991 135.058C164.731 139.321 168.181 142.72 172.342 145.258C176.503 147.693 181.425 148.911 187.108 148.911C192.284 148.911 196.8 147.693 200.656 145.258C204.513 142.72 207.659 139.321 210.094 135.058C212.631 130.796 214.509 125.823 215.727 120.14C217.046 114.356 217.706 108.216 217.706 101.721C217.706 95.2258 217.046 89.1367 215.727 83.4536C214.407 77.669 212.378 72.6456 209.638 68.3832C206.898 64.1209 203.447 60.7719 199.286 58.3363C195.125 55.7992 190.203 54.5306 184.52 54.5306C178.939 54.5306 174.169 55.7992 170.211 58.3363C166.355 60.7719 163.209 64.1209 160.773 68.3832C158.337 72.6456 156.561 77.669 155.445 83.4536C154.329 89.1367 153.771 95.2258 153.771 101.721ZM287.004 137.646C287.004 134.805 286.091 132.42 284.264 130.492C282.539 128.462 280.306 126.584 277.566 124.859C274.826 123.134 271.883 121.459 268.737 119.836C265.693 118.212 262.8 116.335 260.06 114.203C257.32 111.971 255.037 109.434 253.21 106.592C251.485 103.75 250.622 100.249 250.622 96.0884C250.622 93.3483 251.231 90.8112 252.449 88.4771C253.768 86.143 255.493 84.164 257.625 82.5403C259.756 80.815 262.242 79.4957 265.084 78.5824C267.925 77.5675 270.97 77.0601 274.217 77.0601C279.697 77.0601 284.163 77.3646 287.613 77.9735C291.165 78.5824 294.565 79.445 297.812 80.5613C297.406 83.8088 296.899 87.1071 296.29 90.456C295.783 93.7035 295.022 97.0525 294.007 100.503H290.201L284.416 84.9759C283.199 84.4685 281.829 84.164 280.306 84.0625C278.784 83.8596 277.211 83.7581 275.587 83.7581C273.761 83.7581 272.137 84.1133 270.716 84.8237C269.397 85.4326 268.23 86.2444 267.215 87.2593C266.301 88.2741 265.591 89.4412 265.084 90.7605C264.576 92.0798 264.323 93.3991 264.323 94.7184C264.323 97.4584 265.185 99.8433 266.91 101.873C268.737 103.801 271.021 105.628 273.761 107.353C276.501 108.977 279.393 110.601 282.437 112.224C285.583 113.848 288.527 115.675 291.267 117.705C294.007 119.734 296.239 122.119 297.965 124.859C299.791 127.498 300.705 130.695 300.705 134.449C300.705 137.9 299.944 140.995 298.421 143.735C297 146.475 294.971 148.809 292.332 150.738C289.795 152.666 286.801 154.137 283.351 155.152C280.002 156.269 276.399 156.827 272.543 156.827C268.179 156.827 264.17 156.421 260.517 155.609C256.863 154.899 253.058 153.833 249.1 152.412C249.303 148.759 249.76 145.258 250.47 141.909C251.18 138.458 252.094 135.16 253.21 132.014H257.016L263.714 148.606C264.83 149.418 266.149 149.875 267.672 149.977C269.295 150.078 270.767 150.129 272.086 150.129C276.551 150.129 280.154 148.911 282.894 146.475C285.634 144.04 287.004 141.097 287.004 137.646ZM353.621 78.8868H383.001V82.8447C381.073 83.6566 379.144 84.367 377.216 84.9759C375.389 85.5848 373.461 86.0922 371.432 86.4981C369.909 88.5278 368.133 90.7097 366.104 93.0439C364.175 95.378 362.197 97.7122 360.167 100.046C358.137 102.38 356.158 104.562 354.23 106.592C352.403 108.622 350.83 110.296 349.511 111.615C351.033 113.645 352.86 116.132 354.991 119.075C357.224 121.916 359.609 124.961 362.146 128.208C364.683 131.456 367.271 134.754 369.909 138.103C372.649 141.452 375.339 144.598 377.977 147.541L386.502 151.194V155H367.626L363.516 151.347C358.137 144.649 353.672 138.712 350.12 133.536C346.568 128.259 343.32 123.337 340.377 118.77L335.354 117.248V147.541C338.703 148.15 342.001 149.368 345.249 151.194V155H311.607V151.194C314.956 149.571 318.305 148.353 321.654 147.541V51.1816L310.084 49.9638V46.0059C312.926 44.6866 316.326 43.6211 320.284 42.8092C324.241 41.9973 327.996 41.2362 331.548 40.5258H335.354V113.29H339.312C340.936 111.463 342.712 109.434 344.64 107.201C346.568 104.968 348.496 102.685 350.424 100.351C352.353 97.9151 354.23 95.5302 356.057 93.1961C357.883 90.862 359.558 88.6293 361.08 86.4981C358.543 85.7878 356.057 84.5699 353.621 82.8447V78.8868ZM392.686 116.943C392.686 110.55 393.498 104.918 395.122 100.046C396.847 95.0736 399.283 90.9127 402.429 87.5637C405.575 84.1133 409.33 81.5254 413.693 79.8002C418.159 77.9735 423.081 77.0601 428.459 77.0601C434.751 77.0601 440.181 78.0242 444.748 79.9524C449.314 81.8806 453.019 84.6207 455.86 88.1726C458.803 91.6231 460.934 95.784 462.254 100.655C463.674 105.526 464.385 110.956 464.385 116.943C464.385 129.73 461.137 139.574 454.642 146.475C448.147 153.376 439.42 156.827 428.459 156.827C422.37 156.827 417.093 155.913 412.628 154.087C408.163 152.158 404.458 149.469 401.515 146.019C398.572 142.467 396.34 138.255 394.817 133.384C393.397 128.411 392.686 122.931 392.686 116.943ZM407.3 116.943C407.3 121.51 407.706 125.823 408.518 129.883C409.431 133.942 410.801 137.494 412.628 140.538C414.556 143.482 417.042 145.816 420.087 147.541C423.131 149.266 426.785 150.129 431.047 150.129C436.527 150.129 440.993 147.439 444.443 142.061C447.995 136.682 449.771 128.31 449.771 116.943C449.771 112.275 449.314 107.962 448.401 104.004C447.589 99.9448 446.27 96.4436 444.443 93.5006C442.616 90.456 440.282 88.0712 437.441 86.3459C434.599 84.6207 431.199 83.7581 427.242 83.7581C421.254 83.7581 416.434 86.4474 412.78 91.8261C409.127 97.2047 407.3 105.577 407.3 116.943Z" fill="black"/>
</svg>