<svg xmlns="http://www.w3.org/2000/svg" xmlns:xlink="http://www.w3.org/1999/xlink" zoomAndPan="magnify" preserveAspectRatio="xMidYMid meet" version="1.0" viewBox="403.32 218.22 1448.14 265.64"><defs><g/></defs><g fill="#000000" fill-opacity="1"><g transform="translate(389.394964, 478.499997)"><g><path d="M 248.140625 -224.21875 L 217.078125 -219.9375 L 217.078125 -97.828125 C 217.078125 -79.023438 214.929688 -63.078125 210.640625 -49.984375 C 206.359375 -36.890625 200.347656 -26.238281 192.609375 -18.03125 C 184.878906 -9.820312 175.835938 -3.867188 165.484375 -0.171875 C 155.128906 3.515625 143.882812 5.359375 131.75 5.359375 C 118.65625 5.359375 106.75 3.515625 96.03125 -0.171875 C 85.320312 -3.867188 76.097656 -9.582031 68.359375 -17.3125 C 60.628906 -25.050781 54.679688 -34.929688 50.515625 -46.953125 C 46.347656 -58.972656 44.265625 -73.3125 44.265625 -89.96875 L 44.265625 -128.171875 C 44.265625 -143.640625 44.265625 -159.050781 44.265625 -174.40625 C 44.265625 -189.757812 44.03125 -205.171875 43.5625 -220.640625 L 13.921875 -224.21875 L 13.921875 -238.859375 L 114.96875 -238.859375 L 114.96875 -224.21875 L 78.90625 -219.9375 C 78.425781 -204.9375 78.1875 -189.816406 78.1875 -174.578125 C 78.1875 -159.347656 78.1875 -143.878906 78.1875 -128.171875 L 78.1875 -100.328125 C 78.1875 -85.085938 79.554688 -72.347656 82.296875 -62.109375 C 85.035156 -51.878906 88.960938 -43.609375 94.078125 -37.296875 C 99.191406 -30.992188 105.4375 -26.535156 112.8125 -23.921875 C 120.195312 -21.304688 128.410156 -20 137.453125 -20 C 147.691406 -20 156.617188 -21.546875 164.234375 -24.640625 C 171.847656 -27.734375 178.210938 -32.671875 183.328125 -39.453125 C 188.453125 -46.234375 192.320312 -55.097656 194.9375 -66.046875 C 197.550781 -76.992188 198.859375 -90.441406 198.859375 -106.390625 L 198.859375 -219.21875 L 162.453125 -224.21875 L 162.453125 -238.859375 L 248.140625 -238.859375 Z M 248.140625 -224.21875 "/></g></g></g><g fill="#000000" fill-opacity="1"><g transform="translate(619.3263, 478.499997)"><g><path d="M 206 -12.859375 L 206 0 L 123.171875 0 L 123.171875 -12.859375 L 149.59375 -17.859375 C 149.832031 -26.660156 150.007812 -36.296875 150.125 -46.765625 C 150.25 -57.242188 150.3125 -66.648438 150.3125 -74.984375 L 150.3125 -106.390625 C 150.3125 -122.578125 148.050781 -133.882812 143.53125 -140.3125 C 139.007812 -146.738281 131.507812 -149.953125 121.03125 -149.953125 C 112.695312 -149.953125 104.660156 -148.164062 96.921875 -144.59375 C 89.191406 -141.03125 80.804688 -135.316406 71.765625 -127.453125 L 71.765625 -74.984375 C 71.765625 -67.117188 71.820312 -57.890625 71.9375 -47.296875 C 72.0625 -36.710938 72.242188 -26.898438 72.484375 -17.859375 L 97.46875 -12.859375 L 97.46875 0 L 14.640625 0 L 14.640625 -12.859375 L 41.0625 -17.859375 C 41.300781 -26.898438 41.476562 -36.65625 41.59375 -47.125 C 41.707031 -57.601562 41.765625 -66.890625 41.765625 -74.984375 L 41.765625 -93.1875 C 41.765625 -102.945312 41.644531 -111.039062 41.40625 -117.46875 C 41.175781 -123.894531 40.941406 -130.675781 40.703125 -137.8125 L 12.5 -141.03125 L 12.5 -153.53125 L 62.125 -175.296875 L 67.484375 -171.734375 L 70.328125 -142.8125 C 79.140625 -152.570312 89.195312 -160.425781 100.5 -166.375 C 111.8125 -172.320312 123.175781 -175.296875 134.59375 -175.296875 C 150.070312 -175.296875 161.554688 -170.175781 169.046875 -159.9375 C 176.546875 -149.707031 180.296875 -132.8125 180.296875 -109.25 L 180.296875 -74.984375 C 180.296875 -66.648438 180.351562 -57.304688 180.46875 -46.953125 C 180.59375 -36.597656 180.773438 -26.898438 181.015625 -17.859375 Z M 206 -12.859375 "/></g></g></g><g fill="#000000" fill-opacity="1"><g transform="translate(816.767315, 478.499997)"><g><path d="M 163.515625 -40.703125 C 158.753906 -25.703125 150.722656 -14.273438 139.421875 -6.421875 C 128.117188 1.429688 113.894531 5.359375 96.75 5.359375 C 84.613281 5.359375 73.601562 3.273438 63.71875 -0.890625 C 53.84375 -5.054688 45.394531 -11.066406 38.375 -18.921875 C 31.351562 -26.773438 26 -36.234375 22.3125 -47.296875 C 18.625 -58.367188 16.78125 -70.691406 16.78125 -84.265625 C 16.78125 -98.304688 19.039062 -110.976562 23.5625 -122.28125 C 28.082031 -133.59375 34.210938 -143.175781 41.953125 -151.03125 C 49.691406 -158.882812 58.5 -164.890625 68.375 -169.046875 C 78.25 -173.210938 88.539062 -175.296875 99.25 -175.296875 C 107.34375 -175.296875 115.019531 -174.101562 122.28125 -171.71875 C 129.539062 -169.34375 135.96875 -166.070312 141.5625 -161.90625 C 147.15625 -157.75 151.738281 -152.875 155.3125 -147.28125 C 158.882812 -141.6875 161.265625 -135.554688 162.453125 -128.890625 C 160.785156 -119.847656 155.3125 -115.328125 146.03125 -115.328125 C 140.070312 -115.328125 135.664062 -116.929688 132.8125 -120.140625 C 129.957031 -123.359375 127.9375 -127.460938 126.75 -132.453125 L 120.3125 -156.015625 C 116.988281 -157.210938 113.660156 -157.988281 110.328125 -158.34375 C 106.992188 -158.695312 103.898438 -158.875 101.046875 -158.875 C 85.566406 -158.875 72.890625 -152.804688 63.015625 -140.671875 C 53.140625 -128.535156 48.203125 -110.921875 48.203125 -87.828125 C 48.203125 -64.984375 53.492188 -47.550781 64.078125 -35.53125 C 74.671875 -23.507812 88.421875 -17.5 105.328125 -17.5 C 115.554688 -17.5 124.957031 -19.878906 133.53125 -24.640625 C 142.101562 -29.398438 149.125 -36.300781 154.59375 -45.34375 Z M 163.515625 -40.703125 "/></g></g></g><g fill="#000000" fill-opacity="1"><g transform="translate(971.720953, 478.499997)"><g><path d="M 98.1875 -158.875 C 82.476562 -158.875 70.457031 -152.503906 62.125 -139.765625 C 53.789062 -127.035156 49.625 -108.535156 49.625 -84.265625 C 49.625 -60.222656 53.789062 -41.953125 62.125 -29.453125 C 70.457031 -16.960938 82.476562 -10.71875 98.1875 -10.71875 C 113.65625 -10.71875 125.554688 -16.960938 133.890625 -29.453125 C 142.222656 -41.953125 146.390625 -60.222656 146.390625 -84.265625 C 146.390625 -108.535156 142.222656 -127.035156 133.890625 -139.765625 C 125.554688 -152.503906 113.65625 -158.875 98.1875 -158.875 Z M 98.1875 -175.296875 C 108.414062 -175.296875 118.46875 -173.332031 128.34375 -169.40625 C 138.226562 -165.476562 146.976562 -159.644531 154.59375 -151.90625 C 162.207031 -144.175781 168.394531 -134.65625 173.15625 -123.34375 C 177.914062 -112.039062 180.296875 -99.015625 180.296875 -84.265625 C 180.296875 -69.503906 177.972656 -56.53125 173.328125 -45.34375 C 168.691406 -34.15625 162.503906 -24.8125 154.765625 -17.3125 C 147.035156 -9.8125 138.226562 -4.15625 128.34375 -0.34375 C 118.46875 3.457031 108.414062 5.359375 98.1875 5.359375 C 87.707031 5.359375 77.53125 3.457031 67.65625 -0.34375 C 57.78125 -4.15625 49.03125 -9.8125 41.40625 -17.3125 C 33.789062 -24.8125 27.660156 -34.15625 23.015625 -45.34375 C 18.378906 -56.53125 16.0625 -69.503906 16.0625 -84.265625 C 16.0625 -99.015625 18.378906 -112.039062 23.015625 -123.34375 C 27.660156 -134.65625 33.851562 -144.175781 41.59375 -151.90625 C 49.332031 -159.644531 58.078125 -165.476562 67.828125 -169.40625 C 77.585938 -173.332031 87.707031 -175.296875 98.1875 -175.296875 Z M 98.1875 -175.296875 "/></g></g></g><g fill="#000000" fill-opacity="1"><g transform="translate(1148.453884, 478.499997)"><g><path d="M 98.1875 -158.875 C 82.476562 -158.875 70.457031 -152.503906 62.125 -139.765625 C 53.789062 -127.035156 49.625 -108.535156 49.625 -84.265625 C 49.625 -60.222656 53.789062 -41.953125 62.125 -29.453125 C 70.457031 -16.960938 82.476562 -10.71875 98.1875 -10.71875 C 113.65625 -10.71875 125.554688 -16.960938 133.890625 -29.453125 C 142.222656 -41.953125 146.390625 -60.222656 146.390625 -84.265625 C 146.390625 -108.535156 142.222656 -127.035156 133.890625 -139.765625 C 125.554688 -152.503906 113.65625 -158.875 98.1875 -158.875 Z M 98.1875 -175.296875 C 108.414062 -175.296875 118.46875 -173.332031 128.34375 -169.40625 C 138.226562 -165.476562 146.976562 -159.644531 154.59375 -151.90625 C 162.207031 -144.175781 168.394531 -134.65625 173.15625 -123.34375 C 177.914062 -112.039062 180.296875 -99.015625 180.296875 -84.265625 C 180.296875 -69.503906 177.972656 -56.53125 173.328125 -45.34375 C 168.691406 -34.15625 162.503906 -24.8125 154.765625 -17.3125 C 147.035156 -9.8125 138.226562 -4.15625 128.34375 -0.34375 C 118.46875 3.457031 108.414062 5.359375 98.1875 5.359375 C 87.707031 5.359375 77.53125 3.457031 67.65625 -0.34375 C 57.78125 -4.15625 49.03125 -9.8125 41.40625 -17.3125 C 33.789062 -24.8125 27.660156 -34.15625 23.015625 -45.34375 C 18.378906 -56.53125 16.0625 -69.503906 16.0625 -84.265625 C 16.0625 -99.015625 18.378906 -112.039062 23.015625 -123.34375 C 27.660156 -134.65625 33.851562 -144.175781 41.59375 -151.90625 C 49.332031 -159.644531 58.078125 -165.476562 67.828125 -169.40625 C 77.585938 -173.332031 87.707031 -175.296875 98.1875 -175.296875 Z M 98.1875 -175.296875 "/></g></g></g><g fill="#000000" fill-opacity="1"><g transform="translate(1321.973411, 478.499997)"><g><path d="M 195.65625 -12.859375 L 195.65625 0 L 147.09375 0 L 92.109375 -88.546875 L 68.1875 -64.265625 C 68.1875 -56.648438 68.242188 -48.914062 68.359375 -41.0625 C 68.484375 -33.207031 68.664062 -25.472656 68.90625 -17.859375 L 97.109375 -12.859375 L 97.109375 0 L 9.28125 0 L 9.28125 -12.859375 L 37.484375 -17.859375 C 37.722656 -27.378906 37.898438 -36.957031 38.015625 -46.59375 C 38.140625 -56.226562 38.203125 -65.691406 38.203125 -74.984375 L 38.203125 -228.140625 L 8.921875 -231.71875 L 8.921875 -244.203125 L 64.625 -260.28125 L 69.625 -257.421875 L 68.1875 -206.71875 L 68.1875 -84.96875 L 131.03125 -150.3125 L 104.96875 -154.234375 L 104.96875 -168.875 L 186.375 -168.875 L 186.375 -154.234375 L 152.09375 -149.59375 L 113.171875 -109.96875 L 172.09375 -17.140625 Z M 195.65625 -12.859375 "/></g></g></g><g fill="#000000" fill-opacity="1"><g transform="translate(1491.565593, 478.499997)"><g><path d="M 114.609375 -101.75 C 123.171875 -101.75 128.878906 -103.535156 131.734375 -107.109375 C 134.597656 -110.679688 136.03125 -115.082031 136.03125 -120.3125 C 136.03125 -125.3125 135.015625 -130.128906 132.984375 -134.765625 C 130.960938 -139.410156 128.226562 -143.519531 124.78125 -147.09375 C 121.332031 -150.664062 117.285156 -153.519531 112.640625 -155.65625 C 108.003906 -157.800781 102.945312 -158.875 97.46875 -158.875 C 92.46875 -158.875 87.289062 -157.863281 81.9375 -155.84375 C 76.582031 -153.820312 71.703125 -150.488281 67.296875 -145.84375 C 62.898438 -141.207031 59.09375 -135.257812 55.875 -128 C 52.664062 -120.738281 50.582031 -111.988281 49.625 -101.75 Z M 48.90625 -86.40625 C 49.382812 -64.269531 54.859375 -47.25 65.328125 -35.34375 C 75.804688 -23.445312 89.613281 -17.5 106.75 -17.5 C 118.175781 -17.5 127.695312 -19.878906 135.3125 -24.640625 C 142.925781 -29.398438 149.945312 -35.585938 156.375 -43.203125 L 164.953125 -36.421875 C 158.765625 -23.566406 149.894531 -13.390625 138.34375 -5.890625 C 126.800781 1.609375 112.820312 5.359375 96.40625 5.359375 C 84.257812 5.359375 73.304688 3.335938 63.546875 -0.703125 C 53.785156 -4.753906 45.453125 -10.644531 38.546875 -18.375 C 31.648438 -26.113281 26.296875 -35.457031 22.484375 -46.40625 C 18.679688 -57.363281 16.78125 -69.625 16.78125 -83.1875 C 16.78125 -96.757812 18.921875 -109.195312 23.203125 -120.5 C 27.492188 -131.800781 33.382812 -141.5 40.875 -149.59375 C 48.375 -157.6875 57.125 -163.992188 67.125 -168.515625 C 77.125 -173.035156 87.710938 -175.296875 98.890625 -175.296875 C 108.179688 -175.296875 116.929688 -173.75 125.140625 -170.65625 C 133.347656 -167.5625 140.425781 -163.039062 146.375 -157.09375 C 152.332031 -151.144531 157.035156 -143.882812 160.484375 -135.3125 C 163.929688 -126.75 165.65625 -117.109375 165.65625 -106.390625 C 165.65625 -102.347656 165.414062 -98.660156 164.9375 -95.328125 C 164.46875 -91.992188 163.875 -89.019531 163.15625 -86.40625 Z M 48.90625 -86.40625 "/></g></g></g><g fill="#000000" fill-opacity="1"><g transform="translate(1654.374085, 478.499997)"><g><path d="M 137.8125 -136.390625 C 129.71875 -143.285156 122.457031 -148.101562 116.03125 -150.84375 C 109.601562 -153.582031 103.414062 -154.953125 97.46875 -154.953125 C 90.800781 -154.953125 84.492188 -153.523438 78.546875 -150.671875 C 72.597656 -147.816406 67.359375 -143.472656 62.828125 -137.640625 C 58.304688 -131.804688 54.738281 -124.484375 52.125 -115.671875 C 49.507812 -106.867188 48.203125 -96.398438 48.203125 -84.265625 C 48.203125 -72.359375 49.453125 -62.0625 51.953125 -53.375 C 54.453125 -44.6875 57.898438 -37.484375 62.296875 -31.765625 C 66.703125 -26.054688 71.878906 -21.832031 77.828125 -19.09375 C 83.785156 -16.363281 90.332031 -15 97.46875 -15 C 105.082031 -15 112.039062 -16.601562 118.34375 -19.8125 C 124.65625 -23.03125 131.144531 -28.207031 137.8125 -35.34375 Z M 197.078125 -12.859375 L 197.078125 0 L 141.390625 3.578125 L 138.890625 -20.34375 C 132.703125 -12.019531 125.675781 -5.65625 117.8125 -1.25 C 109.957031 3.15625 100.320312 5.359375 88.90625 5.359375 C 77.957031 5.359375 68.019531 3.21875 59.09375 -1.0625 C 50.164062 -5.351562 42.488281 -11.425781 36.0625 -19.28125 C 29.632812 -27.132812 24.691406 -36.472656 21.234375 -47.296875 C 17.785156 -58.128906 16.0625 -70.09375 16.0625 -83.1875 C 16.0625 -96.757812 17.960938 -109.195312 21.765625 -120.5 C 25.578125 -131.800781 30.875 -141.5 37.65625 -149.59375 C 44.445312 -157.6875 52.484375 -163.992188 61.765625 -168.515625 C 71.046875 -173.035156 81.160156 -175.296875 92.109375 -175.296875 C 100.679688 -175.296875 108.773438 -173.570312 116.390625 -170.125 C 124.003906 -166.675781 131.503906 -160.664062 138.890625 -152.09375 L 138.890625 -228.140625 L 108.53125 -231.71875 L 108.53125 -244.203125 L 164.59375 -260.28125 L 169.59375 -257.421875 L 168.15625 -206.71875 L 168.15625 -17.5 Z M 197.078125 -12.859375 "/></g></g></g></svg>