<svg xmlns="http://www.w3.org/2000/svg" fill="none" viewBox="0.48 0.53 326.9 116.3">
<path d="M0.482333 61.7208C0.482333 53.805 1.54792 46.4981 3.67909 39.8002C5.91174 33.0007 9.05775 27.1654 13.1171 22.2942C17.278 17.3214 22.3522 13.465 28.3398 10.725C34.3273 7.98488 41.1268 6.61485 48.7381 6.61485C56.3494 6.61485 63.1488 7.98488 69.1364 10.725C75.124 13.465 80.1475 17.3214 84.2068 22.2942C88.3677 27.1654 91.5137 33.0007 93.6449 39.8002C95.8775 46.4981 96.9938 53.805 96.9938 61.7208C96.9938 69.6365 95.8775 76.9942 93.6449 83.7936C91.5137 90.4916 88.3677 96.3269 84.2068 101.3C80.1475 106.171 75.124 109.977 69.1364 112.717C63.1488 115.457 56.3494 116.827 48.7381 116.827C41.1268 116.827 34.3273 115.457 28.3398 112.717C22.3522 109.977 17.278 106.171 13.1171 101.3C9.05775 96.3269 5.91174 90.4916 3.67909 83.7936C1.54792 76.9942 0.482333 69.6365 0.482333 61.7208ZM16.7706 61.7208C16.7706 68.2158 17.4302 74.3556 18.7495 80.1402C20.1703 85.8233 22.2507 90.796 24.9908 95.0583C27.7308 99.3207 31.1813 102.72 35.3422 105.258C39.503 107.693 44.425 108.911 50.1081 108.911C55.2838 108.911 59.7999 107.693 63.6563 105.258C67.5127 102.72 70.6587 99.3207 73.0943 95.0583C75.6314 90.796 77.5089 85.8233 78.7267 80.1402C80.046 74.3556 80.7056 68.2158 80.7056 61.7208C80.7056 55.2258 80.046 49.1367 78.7267 43.4536C77.4074 37.669 75.3777 32.6456 72.6376 28.3832C69.8975 24.1209 66.4471 20.7719 62.2862 18.3363C58.1254 15.7992 53.2034 14.5306 47.5203 14.5306C41.9386 14.5306 37.1689 15.7992 33.211 18.3363C29.3546 20.7719 26.2086 24.1209 23.773 28.3832C21.3373 32.6456 19.5614 37.669 18.445 43.4536C17.3287 49.1367 16.7706 55.2258 16.7706 61.7208ZM150.004 97.6462C150.004 94.8046 149.091 92.4198 147.264 90.4916C145.539 88.4619 143.306 86.5844 140.566 84.8592C137.826 83.134 134.883 81.4595 131.737 79.8357C128.693 78.212 125.8 76.3345 123.06 74.2033C120.32 71.9707 118.037 69.4336 116.21 66.592C114.485 63.7505 113.622 60.2493 113.622 56.0884C113.622 53.3483 114.231 50.8112 115.449 48.4771C116.768 46.143 118.493 44.164 120.625 42.5403C122.756 40.815 125.242 39.4957 128.084 38.5824C130.925 37.5675 133.97 37.0601 137.217 37.0601C142.697 37.0601 147.163 37.3646 150.613 37.9735C154.165 38.5824 157.565 39.445 160.812 40.5613C160.406 43.8088 159.899 47.1071 159.29 50.456C158.783 53.7035 158.022 57.0525 157.007 60.503H153.201L147.416 44.9759C146.199 44.4685 144.829 44.164 143.306 44.0625C141.784 43.8596 140.211 43.7581 138.587 43.7581C136.761 43.7581 135.137 44.1133 133.716 44.8237C132.397 45.4326 131.23 46.2444 130.215 47.2593C129.301 48.2741 128.591 49.4412 128.084 50.7605C127.576 52.0798 127.323 53.3991 127.323 54.7184C127.323 57.4584 128.185 59.8433 129.91 61.873C131.737 63.8012 134.021 65.6279 136.761 67.3532C139.501 68.9769 142.393 70.6006 145.437 72.2244C148.583 73.8481 151.527 75.6749 154.267 77.7045C157.007 79.7342 159.239 82.1191 160.965 84.8592C162.791 87.4978 163.705 90.6945 163.705 94.4494C163.705 97.8999 162.944 100.995 161.421 103.735C160 106.475 157.971 108.809 155.332 110.738C152.795 112.666 149.801 114.137 146.351 115.152C143.002 116.269 139.399 116.827 135.543 116.827C131.179 116.827 127.17 116.421 123.517 115.609C119.863 114.899 116.058 113.833 112.1 112.412C112.303 108.759 112.76 105.258 113.47 101.909C114.18 98.4581 115.094 95.1598 116.21 92.0138H120.016L126.714 108.606C127.83 109.418 129.149 109.875 130.672 109.977C132.295 110.078 133.767 110.129 135.086 110.129C139.551 110.129 143.154 108.911 145.894 106.475C148.634 104.04 150.004 101.097 150.004 97.6462ZM216.621 38.8868H246.001V42.8447C244.073 43.6566 242.144 44.367 240.216 44.9759C238.389 45.5848 236.461 46.0922 234.432 46.4981C232.909 48.5278 231.133 50.7097 229.104 53.0439C227.175 55.378 225.197 57.7122 223.167 60.0463C221.137 62.3804 219.158 64.5623 217.23 66.592C215.403 68.6217 213.83 70.2962 212.511 71.6155C214.033 73.6452 215.86 76.1315 217.991 79.0746C220.224 81.9161 222.609 84.9607 225.146 88.2082C227.683 91.4557 230.271 94.7539 232.909 98.1029C235.649 101.452 238.339 104.598 240.977 107.541L249.502 111.194V115H230.626L226.516 111.347C221.137 104.649 216.672 98.7118 213.12 93.5361C209.568 88.2589 206.32 83.3369 203.377 78.7701L198.354 77.2479V107.541C201.703 108.15 205.001 109.368 208.249 111.194V115H174.607V111.194C177.956 109.571 181.305 108.353 184.654 107.541V11.1816L173.084 9.96382V6.00594C175.926 4.68665 179.326 3.62106 183.284 2.80918C187.241 1.99731 190.996 1.23618 194.548 0.525792H198.354V73.29H202.312C203.936 71.4633 205.712 69.4336 207.64 67.2009C209.568 64.9683 211.496 62.6849 213.424 60.3507C215.353 57.9151 217.23 55.5302 219.057 53.1961C220.883 50.862 222.558 48.6293 224.08 46.4981C221.543 45.7878 219.057 44.5699 216.621 42.8447V38.8868ZM255.686 76.9434C255.686 70.5499 256.498 64.9175 258.122 60.0463C259.847 55.0736 262.283 50.9127 265.429 47.5637C268.575 44.1133 272.33 41.5254 276.693 39.8002C281.159 37.9735 286.081 37.0601 291.459 37.0601C297.751 37.0601 303.181 38.0242 307.748 39.9524C312.314 41.8806 316.019 44.6207 318.86 48.1726C321.803 51.6231 323.934 55.784 325.254 60.6552C326.674 65.5264 327.385 70.9558 327.385 76.9434C327.385 89.7304 324.137 99.5744 317.642 106.475C311.147 113.376 302.42 116.827 291.459 116.827C285.37 116.827 280.093 115.913 275.628 114.087C271.163 112.158 267.458 109.469 264.515 106.019C261.572 102.467 259.34 98.2551 257.817 93.3839C256.397 88.4111 255.686 82.931 255.686 76.9434ZM270.3 76.9434C270.3 81.5102 270.706 85.8233 271.518 89.8827C272.431 93.942 273.801 97.494 275.628 100.538C277.556 103.482 280.042 105.816 283.087 107.541C286.131 109.266 289.785 110.129 294.047 110.129C299.527 110.129 303.993 107.439 307.443 102.061C310.995 96.6821 312.771 88.3096 312.771 76.9434C312.771 72.2751 312.314 67.9621 311.401 64.0042C310.589 59.9448 309.27 56.4436 307.443 53.5006C305.616 50.456 303.282 48.0712 300.441 46.3459C297.599 44.6207 294.199 43.7581 290.242 43.7581C284.254 43.7581 279.434 46.4474 275.78 51.8261C272.127 57.2047 270.3 65.5772 270.3 76.9434Z" fill="black"/>
</svg>