<svg xmlns="http://www.w3.org/2000/svg" xmlns:xlink="http://www.w3.org/1999/xlink" width="500" zoomAndPan="magnify" viewBox="0 0 375 374.999991" height="500" preserveAspectRatio="xMidYMid meet" version="1.2"><defs/><g id="d1a227ce12"><g style="fill:#000000;fill-opacity:1;"><g transform="translate(-0.540659, 242.853425)"><path style="stroke:none" d="M 77.609375 -74.921875 L 77.609375 0 L 65.6875 0 L 65.6875 -13.5625 C 63.5 -8.882812 60.195312 -5.28125 55.78125 -2.75 C 51.363281 -0.21875 46.222656 1.046875 40.359375 1.046875 C 33.710938 1.046875 27.878906 -0.539062 22.859375 -3.71875 C 17.847656 -6.894531 13.976562 -11.390625 11.25 -17.203125 C 8.519531 -23.015625 7.15625 -29.789062 7.15625 -37.53125 C 7.15625 -45.28125 8.539062 -52.109375 11.3125 -58.015625 C 14.09375 -63.921875 17.988281 -68.507812 23 -71.78125 C 28.019531 -75.0625 33.804688 -76.703125 40.359375 -76.703125 C 46.222656 -76.703125 51.335938 -75.410156 55.703125 -72.828125 C 60.078125 -70.253906 63.40625 -66.632812 65.6875 -61.96875 L 65.6875 -74.921875 Z M 42.75 -8.9375 C 50.09375 -8.9375 55.75 -11.441406 59.71875 -16.453125 C 63.695312 -21.472656 65.6875 -28.597656 65.6875 -37.828125 C 65.6875 -47.066406 63.695312 -54.164062 59.71875 -59.125 C 55.75 -64.09375 50.09375 -66.578125 42.75 -66.578125 C 35.40625 -66.578125 29.671875 -64.019531 25.546875 -58.90625 C 21.421875 -53.789062 19.359375 -46.664062 19.359375 -37.53125 C 19.359375 -28.394531 21.394531 -21.34375 25.46875 -16.375 C 29.539062 -11.414062 35.300781 -8.9375 42.75 -8.9375 Z M 42.75 -8.9375 "/></g></g><g style="fill:#000000;fill-opacity:1;"><g transform="translate(88.824102, 242.853425)"><path style="stroke:none" d="M 77.609375 -109.625 L 77.609375 0 L 65.6875 0 L 65.6875 -13.5625 C 63.5 -8.882812 60.195312 -5.28125 55.78125 -2.75 C 51.363281 -0.21875 46.222656 1.046875 40.359375 1.046875 C 33.804688 1.046875 28.019531 -0.585938 23 -3.859375 C 17.988281 -7.140625 14.09375 -11.734375 11.3125 -17.640625 C 8.539062 -23.554688 7.15625 -30.382812 7.15625 -38.125 C 7.15625 -45.875 8.519531 -52.648438 11.25 -58.453125 C 13.976562 -64.265625 17.875 -68.757812 22.9375 -71.9375 C 28 -75.113281 33.804688 -76.703125 40.359375 -76.703125 C 46.222656 -76.703125 51.335938 -75.4375 55.703125 -72.90625 C 60.078125 -70.375 63.359375 -66.828125 65.546875 -62.265625 L 65.546875 -109.625 Z M 42.75 -8.9375 C 50.09375 -8.9375 55.75 -11.441406 59.71875 -16.453125 C 63.695312 -21.472656 65.6875 -28.597656 65.6875 -37.828125 C 65.6875 -46.960938 63.695312 -54.035156 59.71875 -59.046875 C 55.75 -64.066406 50.09375 -66.578125 42.75 -66.578125 C 35.40625 -66.578125 29.671875 -64.09375 25.546875 -59.125 C 21.421875 -54.164062 19.359375 -47.164062 19.359375 -38.125 C 19.359375 -28.894531 21.421875 -21.722656 25.546875 -16.609375 C 29.671875 -11.492188 35.40625 -8.9375 42.75 -8.9375 Z M 42.75 -8.9375 "/></g></g><g style="fill:#000000;fill-opacity:1;"><g transform="translate(178.188862, 242.853425)"><path style="stroke:none" d="M 77.609375 -109.625 L 77.609375 0 L 65.6875 0 L 65.6875 -13.5625 C 63.5 -8.882812 60.195312 -5.28125 55.78125 -2.75 C 51.363281 -0.21875 46.222656 1.046875 40.359375 1.046875 C 33.804688 1.046875 28.019531 -0.585938 23 -3.859375 C 17.988281 -7.140625 14.09375 -11.734375 11.3125 -17.640625 C 8.539062 -23.554688 7.15625 -30.382812 7.15625 -38.125 C 7.15625 -45.875 8.519531 -52.648438 11.25 -58.453125 C 13.976562 -64.265625 17.875 -68.757812 22.9375 -71.9375 C 28 -75.113281 33.804688 -76.703125 40.359375 -76.703125 C 46.222656 -76.703125 51.335938 -75.4375 55.703125 -72.90625 C 60.078125 -70.375 63.359375 -66.828125 65.546875 -62.265625 L 65.546875 -109.625 Z M 42.75 -8.9375 C 50.09375 -8.9375 55.75 -11.441406 59.71875 -16.453125 C 63.695312 -21.472656 65.6875 -28.597656 65.6875 -37.828125 C 65.6875 -46.960938 63.695312 -54.035156 59.71875 -59.046875 C 55.75 -64.066406 50.09375 -66.578125 42.75 -66.578125 C 35.40625 -66.578125 29.671875 -64.09375 25.546875 -59.125 C 21.421875 -54.164062 19.359375 -47.164062 19.359375 -38.125 C 19.359375 -28.894531 21.421875 -21.722656 25.546875 -16.609375 C 29.671875 -11.492188 35.40625 -8.9375 42.75 -8.9375 Z M 42.75 -8.9375 "/></g></g><g style="fill:#000000;fill-opacity:1;"><g transform="translate(267.553623, 242.853425)"><path style="stroke:none" d="M 77.453125 -74.921875 L 42.453125 6.859375 C 38.773438 15.390625 34.15625 21.640625 28.59375 25.609375 C 23.03125 29.585938 16.179688 32.320312 8.046875 33.8125 L 5.515625 24.421875 C 12.566406 22.835938 17.898438 20.726562 21.515625 18.09375 C 25.140625 15.46875 28.144531 11.421875 30.53125 5.953125 L 33.515625 -0.75 L 1.78125 -74.921875 L 14.453125 -74.921875 L 39.765625 -13.109375 L 65.390625 -74.921875 Z M 77.453125 -74.921875 "/></g></g><g style="fill:#000000;fill-opacity:1;"><g transform="translate(341.129965, 242.853425)"><path style="stroke:none" d="M 9.53125 -15.34375 L 24.875 -15.34375 L 24.875 0 L 9.53125 0 Z M 9.53125 -15.34375 "/></g></g></g></svg>