<svg width="76" height="20" viewBox="0 0 76 20" fill="none" xmlns="http://www.w3.org/2000/svg">
<g clip-path="url(#clip0_49_1376)">
<rect y="2" width="16" height="16" rx="1.6" fill="#0275DE"/>
<path d="M27.0469 9.587C27.0469 8.033 27.3199 6.689 27.8659 5.555C28.4119 4.421 29.2029 3.546 30.2389 2.93C31.2889 2.314 32.5349 2.006 33.9769 2.006C35.4049 2.006 36.6369 2.314 37.6729 2.93C38.7089 3.546 39.5069 4.421 40.0669 5.555C40.6409 6.689 40.9279 8.026 40.9279 9.566C40.9279 11.12 40.6409 12.471 40.0669 13.619C39.5069 14.753 38.7019 15.635 37.6519 16.265C36.6159 16.881 35.3909 17.189 33.9769 17.189C32.5349 17.189 31.2959 16.881 30.2599 16.265C29.2239 15.635 28.4259 14.753 27.8659 13.619C27.3199 12.471 27.0469 11.127 27.0469 9.587ZM29.3359 9.587C29.3359 11.379 29.7279 12.779 30.5119 13.787C31.2959 14.795 32.4509 15.299 33.9769 15.299C35.4609 15.299 36.6089 14.802 37.4209 13.808C38.2329 12.8 38.6389 11.393 38.6389 9.587C38.6389 7.781 38.2329 6.381 37.4209 5.387C36.6229 4.393 35.4749 3.896 33.9769 3.896C32.4509 3.896 31.2959 4.393 30.5119 5.387C29.7279 6.381 29.3359 7.781 29.3359 9.587ZM47.3601 17.189C46.4781 17.189 45.6661 17.077 44.9241 16.853C44.1821 16.629 43.5661 16.314 43.0761 15.908L43.7271 14.459C44.2451 14.851 44.8191 15.145 45.4491 15.341C46.0791 15.537 46.7231 15.635 47.3811 15.635C48.1511 15.635 48.7321 15.502 49.1241 15.236C49.5161 14.956 49.7121 14.578 49.7121 14.102C49.7121 13.738 49.5861 13.444 49.3341 13.22C49.0961 12.996 48.6971 12.828 48.1371 12.716L46.1211 12.317C45.2251 12.121 44.5461 11.785 44.0841 11.309C43.6221 10.833 43.3911 10.224 43.3911 9.482C43.3911 8.852 43.5591 8.292 43.8951 7.802C44.2451 7.312 44.7351 6.927 45.3651 6.647C46.0091 6.367 46.7581 6.227 47.6121 6.227C48.3961 6.227 49.1241 6.339 49.7961 6.563C50.4681 6.787 51.0281 7.109 51.4761 7.529L50.8041 8.936C50.3701 8.572 49.8801 8.292 49.3341 8.096C48.7881 7.886 48.2351 7.781 47.6751 7.781C46.8911 7.781 46.3101 7.928 45.9321 8.222C45.5541 8.516 45.3651 8.901 45.3651 9.377C45.3651 9.741 45.4771 10.042 45.7011 10.28C45.9391 10.504 46.3101 10.679 46.8141 10.805L48.8301 11.204C49.7821 11.4 50.4961 11.722 50.9721 12.17C51.4481 12.618 51.6861 13.22 51.6861 13.976C51.6861 14.634 51.5041 15.208 51.1401 15.698C50.7761 16.188 50.2721 16.559 49.6281 16.811C48.9841 17.063 48.2281 17.189 47.3601 17.189ZM54.1861 17V1.544H56.3071V11.036H56.3491L60.9691 6.416H63.5941L58.0081 11.981L58.0291 11.036L64.0561 17H61.3681L56.3491 12.149H56.3071V17H54.1861ZM69.6733 17.189C68.6233 17.189 67.7133 16.972 66.9433 16.538C66.1733 16.09 65.5783 15.46 65.1583 14.648C64.7383 13.822 64.5283 12.842 64.5283 11.708C64.5283 10.574 64.7383 9.601 65.1583 8.789C65.5783 7.963 66.1733 7.333 66.9433 6.899C67.7133 6.451 68.6233 6.227 69.6733 6.227C70.7233 6.227 71.6333 6.451 72.4033 6.899C73.1873 7.333 73.7893 7.963 74.2093 8.789C74.6433 9.601 74.8603 10.574 74.8603 11.708C74.8603 12.842 74.6433 13.822 74.2093 14.648C73.7893 15.46 73.1873 16.09 72.4033 16.538C71.6333 16.972 70.7233 17.189 69.6733 17.189ZM69.6733 15.53C70.5973 15.53 71.3323 15.208 71.8783 14.564C72.4243 13.92 72.6973 12.968 72.6973 11.708C72.6973 10.448 72.4243 9.503 71.8783 8.873C71.3323 8.229 70.5973 7.907 69.6733 7.907C68.7633 7.907 68.0353 8.229 67.4893 8.873C66.9433 9.503 66.6703 10.448 66.6703 11.708C66.6703 12.968 66.9363 13.92 67.4683 14.564C68.0143 15.208 68.7493 15.53 69.6733 15.53Z" fill="black"/>
</g>
<defs>
<clipPath id="clip0_49_1376">
<rect width="75.8078" height="20" fill="white"/>
</clipPath>
</defs>
</svg>
