<svg xmlns="http://www.w3.org/2000/svg" xmlns:xlink="http://www.w3.org/1999/xlink" width="500" zoomAndPan="magnify" viewBox="0 0 375 374.999991" height="500" preserveAspectRatio="xMidYMid meet" version="1.0"><defs><g/><clipPath id="b7954ce9bb"><rect x="0" width="375" y="0" height="229"/></clipPath></defs><g transform="matrix(1, 0, 0, 1, 0, 73)"><g clip-path="url(#b7954ce9bb)"><g fill="#000000" fill-opacity="1"><g transform="translate(-5.543873, 178.233408)"><g><path d="M 9.171875 -60.59375 C 9.171875 -69.59375 10.410156 -77.929688 12.890625 -85.609375 C 15.378906 -93.285156 18.957031 -99.921875 23.625 -105.515625 C 28.300781 -111.117188 34.046875 -115.476562 40.859375 -118.59375 C 47.671875 -121.707031 55.40625 -123.265625 64.0625 -123.265625 C 72.71875 -123.265625 80.445312 -121.707031 87.25 -118.59375 C 94.0625 -115.476562 99.804688 -111.117188 104.484375 -105.515625 C 109.160156 -99.921875 112.738281 -93.285156 115.21875 -85.609375 C 117.695312 -77.929688 118.9375 -69.59375 118.9375 -60.59375 C 118.9375 -51.59375 117.695312 -43.253906 115.21875 -35.578125 C 112.738281 -27.898438 109.160156 -21.257812 104.484375 -15.65625 C 99.804688 -10.0625 94.0625 -5.707031 87.25 -2.59375 C 80.445312 0.519531 72.71875 2.078125 64.0625 2.078125 C 55.40625 2.078125 47.671875 0.519531 40.859375 -2.59375 C 34.046875 -5.707031 28.300781 -10.0625 23.625 -15.65625 C 18.957031 -21.257812 15.378906 -27.898438 12.890625 -35.578125 C 10.410156 -43.253906 9.171875 -51.59375 9.171875 -60.59375 Z M 27.703125 -60.59375 C 27.703125 -53.207031 28.476562 -46.253906 30.03125 -39.734375 C 31.59375 -33.210938 33.929688 -27.523438 37.046875 -22.671875 C 40.160156 -17.828125 44.082031 -13.988281 48.8125 -11.15625 C 53.550781 -8.332031 59.148438 -6.921875 65.609375 -6.921875 C 71.492188 -6.921875 76.628906 -8.332031 81.015625 -11.15625 C 85.398438 -13.988281 89.003906 -17.828125 91.828125 -22.671875 C 94.660156 -27.523438 96.796875 -33.210938 98.234375 -39.734375 C 99.679688 -46.253906 100.40625 -53.207031 100.40625 -60.59375 C 100.40625 -67.976562 99.65625 -74.929688 98.15625 -81.453125 C 96.65625 -87.972656 94.347656 -93.65625 91.234375 -98.5 C 88.117188 -103.351562 84.191406 -107.191406 79.453125 -110.015625 C 74.722656 -112.847656 69.128906 -114.265625 62.671875 -114.265625 C 56.328125 -114.265625 50.929688 -112.847656 46.484375 -110.015625 C 42.035156 -107.191406 38.425781 -103.351562 35.65625 -98.5 C 32.894531 -93.65625 30.878906 -87.972656 29.609375 -81.453125 C 28.335938 -74.929688 27.703125 -67.976562 27.703125 -60.59375 Z M 27.703125 -60.59375 "/></g></g></g><g fill="#000000" fill-opacity="1"><g transform="translate(122.566484, 178.233408)"><g><path d="M 51.078125 -19.734375 C 51.078125 -22.960938 50.066406 -25.703125 48.046875 -27.953125 C 46.023438 -30.203125 43.453125 -32.304688 40.328125 -34.265625 C 37.210938 -36.234375 33.894531 -38.140625 30.375 -39.984375 C 26.863281 -41.835938 23.546875 -44.003906 20.421875 -46.484375 C 17.304688 -48.960938 14.738281 -51.816406 12.71875 -55.046875 C 10.695312 -58.285156 9.6875 -62.269531 9.6875 -67 C 9.6875 -70.113281 10.40625 -73 11.84375 -75.65625 C 13.289062 -78.3125 15.226562 -80.585938 17.65625 -82.484375 C 20.082031 -84.390625 22.910156 -85.890625 26.140625 -86.984375 C 29.367188 -88.085938 32.832031 -88.640625 36.53125 -88.640625 C 42.757812 -88.640625 47.863281 -88.289062 51.84375 -87.59375 C 55.832031 -86.90625 59.671875 -85.925781 63.359375 -84.65625 C 62.898438 -80.96875 62.351562 -77.242188 61.71875 -73.484375 C 61.082031 -69.734375 60.1875 -65.898438 59.03125 -61.984375 L 54.703125 -61.984375 L 48.125 -79.640625 C 46.738281 -80.210938 45.179688 -80.582031 43.453125 -80.75 C 41.722656 -80.925781 39.9375 -81.015625 38.09375 -81.015625 C 36.007812 -81.015625 34.1875 -80.640625 32.625 -79.890625 C 31.070312 -79.140625 29.742188 -78.1875 28.640625 -77.03125 C 27.546875 -75.882812 26.710938 -74.5625 26.140625 -73.0625 C 25.566406 -71.5625 25.28125 -70.0625 25.28125 -68.5625 C 25.28125 -65.445312 26.285156 -62.757812 28.296875 -60.5 C 30.316406 -58.25 32.882812 -56.171875 36 -54.265625 C 39.125 -52.367188 42.445312 -50.492188 45.96875 -48.640625 C 49.488281 -46.796875 52.804688 -44.71875 55.921875 -42.40625 C 59.035156 -40.101562 61.601562 -37.421875 63.625 -34.359375 C 65.644531 -31.304688 66.65625 -27.644531 66.65625 -23.375 C 66.65625 -19.445312 65.816406 -15.925781 64.140625 -12.8125 C 62.460938 -9.695312 60.148438 -7.039062 57.203125 -4.84375 C 54.265625 -2.65625 50.863281 -0.957031 47 0.25 C 43.132812 1.46875 39.007812 2.078125 34.625 2.078125 C 29.664062 2.078125 25.109375 1.644531 20.953125 0.78125 C 16.796875 -0.0820312 12.46875 -1.320312 7.96875 -2.9375 C 8.195312 -7.09375 8.710938 -11.101562 9.515625 -14.96875 C 10.328125 -18.84375 11.367188 -22.566406 12.640625 -26.140625 L 16.96875 -26.140625 L 24.578125 -7.265625 C 25.847656 -6.347656 27.378906 -5.832031 29.171875 -5.71875 C 30.960938 -5.601562 32.609375 -5.546875 34.109375 -5.546875 C 39.179688 -5.546875 43.273438 -6.925781 46.390625 -9.6875 C 49.515625 -12.457031 51.078125 -15.804688 51.078125 -19.734375 Z M 51.078125 -19.734375 "/></g></g></g><g fill="#000000" fill-opacity="1"><g transform="translate(197.528352, 178.233408)"><g><path d="M 51.9375 -86.5625 L 85.34375 -86.5625 L 85.34375 -82.0625 C 83.15625 -81.132812 80.992188 -80.320312 78.859375 -79.625 C 76.722656 -78.9375 74.5 -78.363281 72.1875 -77.90625 C 70.457031 -75.59375 68.46875 -73.109375 66.21875 -70.453125 C 63.96875 -67.804688 61.6875 -65.15625 59.375 -62.5 C 57.070312 -59.84375 54.851562 -57.359375 52.71875 -55.046875 C 50.582031 -52.742188 48.765625 -50.84375 47.265625 -49.34375 C 48.992188 -47.03125 51.097656 -44.226562 53.578125 -40.9375 C 56.054688 -37.65625 58.738281 -34.164062 61.625 -30.46875 C 64.507812 -26.78125 67.484375 -23.03125 70.546875 -19.21875 C 73.609375 -15.40625 76.640625 -11.828125 79.640625 -8.484375 L 89.328125 -4.328125 L 89.328125 0 L 67.859375 0 L 63.1875 -4.15625 C 57.070312 -11.769531 51.992188 -18.546875 47.953125 -24.484375 C 43.910156 -30.429688 40.21875 -36.003906 36.875 -41.203125 L 31.15625 -42.9375 L 31.15625 -8.484375 C 34.96875 -7.785156 38.722656 -6.398438 42.421875 -4.328125 L 42.421875 0 L 4.15625 0 L 4.15625 -4.328125 C 7.96875 -6.171875 11.773438 -7.554688 15.578125 -8.484375 L 15.578125 -118.078125 L 2.421875 -119.453125 L 2.421875 -123.953125 C 5.648438 -125.453125 9.515625 -126.664062 14.015625 -127.59375 C 18.523438 -128.519531 22.796875 -129.382812 26.828125 -130.1875 L 31.15625 -130.1875 L 31.15625 -47.4375 L 35.65625 -47.4375 C 37.507812 -49.507812 39.53125 -51.816406 41.71875 -54.359375 C 43.914062 -56.898438 46.109375 -59.523438 48.296875 -62.234375 C 50.492188 -64.953125 52.628906 -67.632812 54.703125 -70.28125 C 56.785156 -72.9375 58.691406 -75.476562 60.421875 -77.90625 C 57.535156 -78.71875 54.707031 -80.101562 51.9375 -82.0625 Z M 51.9375 -86.5625 "/></g></g></g><g fill="#000000" fill-opacity="1"><g transform="translate(284.781786, 178.233408)"><g><path d="M 7.09375 -43.28125 C 7.09375 -50.550781 8.046875 -56.984375 9.953125 -62.578125 C 11.859375 -68.179688 14.597656 -72.914062 18.171875 -76.78125 C 21.753906 -80.644531 26.054688 -83.585938 31.078125 -85.609375 C 36.097656 -87.628906 41.664062 -88.640625 47.78125 -88.640625 C 54.9375 -88.640625 61.109375 -87.539062 66.296875 -85.34375 C 71.492188 -83.15625 75.738281 -80.066406 79.03125 -76.078125 C 82.320312 -72.097656 84.742188 -67.335938 86.296875 -61.796875 C 87.859375 -56.265625 88.640625 -50.09375 88.640625 -43.28125 C 88.640625 -28.738281 84.945312 -17.539062 77.5625 -9.6875 C 70.175781 -1.84375 60.25 2.078125 47.78125 2.078125 C 40.851562 2.078125 34.847656 1.007812 29.765625 -1.125 C 24.691406 -3.257812 20.484375 -6.316406 17.140625 -10.296875 C 13.796875 -14.285156 11.285156 -19.078125 9.609375 -24.671875 C 7.929688 -30.265625 7.09375 -36.46875 7.09375 -43.28125 Z M 23.71875 -43.28125 C 23.71875 -38.082031 24.207031 -33.175781 25.1875 -28.5625 C 26.164062 -23.945312 27.722656 -19.9375 29.859375 -16.53125 C 31.992188 -13.125 34.789062 -10.441406 38.25 -8.484375 C 41.71875 -6.523438 45.875 -5.546875 50.71875 -5.546875 C 56.957031 -5.546875 62.066406 -8.601562 66.046875 -14.71875 C 70.023438 -20.832031 72.015625 -30.351562 72.015625 -43.28125 C 72.015625 -48.59375 71.523438 -53.523438 70.546875 -58.078125 C 69.566406 -62.640625 68.035156 -66.625 65.953125 -70.03125 C 63.878906 -73.4375 61.226562 -76.117188 58 -78.078125 C 54.769531 -80.035156 50.898438 -81.015625 46.390625 -81.015625 C 39.585938 -81.015625 34.109375 -77.957031 29.953125 -71.84375 C 25.796875 -65.726562 23.71875 -56.207031 23.71875 -43.28125 Z M 23.71875 -43.28125 "/></g></g></g></g></g></svg>