<svg xmlns="http://www.w3.org/2000/svg" xmlns:xlink="http://www.w3.org/1999/xlink" width="500" zoomAndPan="magnify" viewBox="0 0 375 374.999991" height="500" preserveAspectRatio="xMidYMid meet" version="1.2"><defs><clipPath id="56520ca7b9"><rect x="0" width="375" y="0" height="202"/></clipPath></defs><g id="6e54a1e700"><g transform="matrix(1,0,0,1,0,70)"><g clip-path="url(#56520ca7b9)"><g style="fill:#000000;fill-opacity:1;"><g transform="translate(-5.738093, 161.64861)"><path style="stroke:none" d="M 62.421875 1.28125 C 51.617188 1.28125 42.234375 -1.097656 34.265625 -5.859375 C 26.296875 -10.617188 20.144531 -17.382812 15.8125 -26.15625 C 11.476562 -34.925781 9.3125 -45.25 9.3125 -57.125 C 9.3125 -69.113281 11.445312 -79.492188 15.71875 -88.265625 C 20 -97.035156 26.148438 -103.773438 34.171875 -108.484375 C 42.203125 -113.191406 51.617188 -115.546875 62.421875 -115.546875 C 73.335938 -115.546875 82.78125 -113.191406 90.75 -108.484375 C 98.71875 -103.773438 104.84375 -97.035156 109.125 -88.265625 C 113.40625 -79.492188 115.546875 -69.171875 115.546875 -57.296875 C 115.546875 -45.304688 113.40625 -34.925781 109.125 -26.15625 C 104.84375 -17.382812 98.691406 -10.617188 90.671875 -5.859375 C 82.648438 -1.097656 73.234375 1.28125 62.421875 1.28125 Z M 62.421875 -12.203125 C 73.867188 -12.203125 82.773438 -16.101562 89.140625 -23.90625 C 95.515625 -31.71875 98.703125 -42.847656 98.703125 -57.296875 C 98.703125 -71.628906 95.515625 -82.671875 89.140625 -90.421875 C 82.773438 -98.179688 73.867188 -102.0625 62.421875 -102.0625 C 50.972656 -102.0625 42.09375 -98.179688 35.78125 -90.421875 C 29.46875 -82.671875 26.3125 -71.628906 26.3125 -57.296875 C 26.3125 -42.847656 29.492188 -31.71875 35.859375 -23.90625 C 42.234375 -16.101562 51.085938 -12.203125 62.421875 -12.203125 Z M 62.421875 -12.203125 "/></g></g><g style="fill:#000000;fill-opacity:1;"><g transform="translate(119.273208, 161.64861)"><path style="stroke:none" d="M 40.125 1.125 C 26 1.125 14.867188 -2.296875 6.734375 -9.140625 L 11.5625 -20.859375 C 20.007812 -14.441406 29.691406 -11.234375 40.609375 -11.234375 C 46.171875 -11.234375 50.394531 -12.164062 53.28125 -14.03125 C 56.164062 -15.90625 57.609375 -18.554688 57.609375 -21.984375 C 57.609375 -24.867188 56.617188 -27.140625 54.640625 -28.796875 C 52.660156 -30.460938 49.316406 -31.882812 44.609375 -33.0625 L 31.140625 -36.265625 C 24.078125 -37.765625 18.695312 -40.410156 15 -44.203125 C 11.3125 -48.003906 9.46875 -52.742188 9.46875 -58.421875 C 9.46875 -65.691406 12.382812 -71.570312 18.21875 -76.0625 C 24.050781 -80.5625 31.78125 -82.8125 41.40625 -82.8125 C 47.1875 -82.8125 52.671875 -81.898438 57.859375 -80.078125 C 63.046875 -78.265625 67.457031 -75.695312 71.09375 -72.375 L 66.125 -60.984375 C 58.3125 -67.191406 50.070312 -70.296875 41.40625 -70.296875 C 36.164062 -70.296875 32.097656 -69.304688 29.203125 -67.328125 C 26.316406 -65.347656 24.875 -62.59375 24.875 -59.0625 C 24.875 -56.28125 25.78125 -54.03125 27.59375 -52.3125 C 29.414062 -50.601562 32.304688 -49.269531 36.265625 -48.3125 L 50.078125 -44.9375 C 57.773438 -43.226562 63.46875 -40.523438 67.15625 -36.828125 C 70.851562 -33.140625 72.703125 -28.351562 72.703125 -22.46875 C 72.703125 -15.195312 69.785156 -9.445312 63.953125 -5.21875 C 58.117188 -0.988281 50.175781 1.125 40.125 1.125 Z M 40.125 1.125 "/></g></g><g style="fill:#000000;fill-opacity:1;"><g transform="translate(199.190574, 161.64861)"><path style="stroke:none" d="M 87.296875 0 L 66.59375 0 L 27.921875 -38.1875 L 27.921875 0 L 11.875 0 L 11.875 -118.109375 L 27.921875 -118.109375 L 27.921875 -44.296875 L 63.875 -80.71875 L 83.9375 -80.71875 L 45.25 -41.890625 Z M 87.296875 0 "/></g></g><g style="fill:#000000;fill-opacity:1;"><g transform="translate(283.119794, 161.64861)"><path style="stroke:none" d="M 46.703125 1.125 C 38.785156 1.125 31.828125 -0.582031 25.828125 -4 C 19.835938 -7.425781 15.210938 -12.296875 11.953125 -18.609375 C 8.691406 -24.921875 7.0625 -32.304688 7.0625 -40.765625 C 7.0625 -49.210938 8.691406 -56.617188 11.953125 -62.984375 C 15.210938 -69.347656 19.835938 -74.242188 25.828125 -77.671875 C 31.828125 -81.097656 38.785156 -82.8125 46.703125 -82.8125 C 54.515625 -82.8125 61.414062 -81.097656 67.40625 -77.671875 C 73.394531 -74.242188 78.019531 -69.347656 81.28125 -62.984375 C 84.550781 -56.617188 86.1875 -49.210938 86.1875 -40.765625 C 86.1875 -32.304688 84.550781 -24.921875 81.28125 -18.609375 C 78.019531 -12.296875 73.394531 -7.425781 67.40625 -4 C 61.414062 -0.582031 54.515625 1.125 46.703125 1.125 Z M 46.546875 -11.71875 C 54.035156 -11.71875 59.757812 -14.175781 63.71875 -19.09375 C 67.675781 -24.019531 69.65625 -31.242188 69.65625 -40.765625 C 69.65625 -50.066406 67.644531 -57.234375 63.625 -62.265625 C 59.613281 -67.296875 53.972656 -69.8125 46.703125 -69.8125 C 39.316406 -69.8125 33.59375 -67.296875 29.53125 -62.265625 C 25.46875 -57.234375 23.4375 -50.066406 23.4375 -40.765625 C 23.4375 -31.242188 25.441406 -24.019531 29.453125 -19.09375 C 33.460938 -14.175781 39.160156 -11.71875 46.546875 -11.71875 Z M 46.546875 -11.71875 "/></g></g></g></g></g></svg>