<svg xmlns="http://www.w3.org/2000/svg" xmlns:xlink="http://www.w3.org/1999/xlink" zoomAndPan="magnify" preserveAspectRatio="xMidYMid meet" version="1.0" viewBox="103.83 103.83 917.33 917.33"><defs><clipPath id="a6ff7774e4"><path d="M 202.832031 202.832031 L 922.167969 202.832031 L 922.167969 922.167969 L 202.832031 922.167969 Z M 202.832031 202.832031 " clip-rule="nonzero"/></clipPath><clipPath id="ed8f9979ab"><path d="M 922.167969 236.582031 L 922.167969 888.417969 C 922.167969 907.058594 907.058594 922.167969 888.417969 922.167969 L 236.582031 922.167969 C 217.941406 922.167969 202.832031 907.058594 202.832031 888.417969 L 202.832031 236.582031 C 202.832031 217.941406 217.941406 202.832031 236.582031 202.832031 L 888.417969 202.832031 C 907.058594 202.832031 922.167969 217.941406 922.167969 236.582031 Z M 922.167969 236.582031 " clip-rule="nonzero"/></clipPath><clipPath id="bceb4fac4f"><path d="M 0.832031 0.832031 L 720.167969 0.832031 L 720.167969 720.167969 L 0.832031 720.167969 Z M 0.832031 0.832031 " clip-rule="nonzero"/></clipPath><clipPath id="988f388c95"><path d="M 720.167969 34.582031 L 720.167969 686.417969 C 720.167969 705.058594 705.058594 720.167969 686.417969 720.167969 L 34.582031 720.167969 C 15.941406 720.167969 0.832031 705.058594 0.832031 686.417969 L 0.832031 34.582031 C 0.832031 15.941406 15.941406 0.832031 34.582031 0.832031 L 686.417969 0.832031 C 705.058594 0.832031 720.167969 15.941406 720.167969 34.582031 Z M 720.167969 34.582031 " clip-rule="nonzero"/></clipPath><clipPath id="8d159bb7f6"><rect x="0" width="721" y="0" height="721"/></clipPath><clipPath id="9915a58dd3"><path d="M 202.832031 202.832031 L 922.082031 202.832031 L 922.082031 922.082031 L 202.832031 922.082031 Z M 202.832031 202.832031 " clip-rule="nonzero"/></clipPath><clipPath id="15cab7ec81"><path d="M 922.164062 236.582031 L 922.164062 888.414062 C 922.164062 907.054688 907.050781 922.164062 888.414062 922.164062 L 236.582031 922.164062 C 217.941406 922.164062 202.832031 907.054688 202.832031 888.414062 L 202.832031 236.582031 C 202.832031 217.941406 217.941406 202.832031 236.582031 202.832031 L 888.414062 202.832031 C 907.050781 202.832031 922.164062 217.941406 922.164062 236.582031 Z M 922.164062 236.582031 " clip-rule="nonzero"/></clipPath></defs><g clip-path="url(#a6ff7774e4)"><g clip-path="url(#ed8f9979ab)"><g transform="matrix(1, 0, 0, 1, 202, 202)"><g clip-path="url(#8d159bb7f6)"><g clip-path="url(#bceb4fac4f)"><g clip-path="url(#988f388c95)"><path fill="#ed805e" d="M 0.832031 0.832031 L 720.167969 0.832031 L 720.167969 720.167969 L 0.832031 720.167969 Z M 0.832031 0.832031 " fill-opacity="1" fill-rule="nonzero"/></g></g></g></g></g></g><g clip-path="url(#9915a58dd3)"><g clip-path="url(#15cab7ec81)"><path stroke-linecap="butt" transform="matrix(0.75, 0, 0, 0.75, 202.83049, 202.831223)" fill="none" stroke-linejoin="miter" d="M 959.111451 45.001079 L 959.111451 914.110474 C 959.111451 938.964641 938.960409 959.110474 914.11145 959.110474 L 45.002056 959.110474 C 20.147889 959.110474 0.00205509 938.964641 0.00205509 914.110474 L 0.00205509 45.001079 C 0.00205509 20.146912 20.147889 0.00107829 45.002056 0.00107829 L 914.11145 0.00107829 C 938.960409 0.00107829 959.111451 20.146912 959.111451 45.001079 Z M 959.111451 45.001079 " stroke="#ed805e" stroke-width="198" stroke-opacity="1" stroke-miterlimit="4"/></g></g></svg>