<svg xmlns="http://www.w3.org/2000/svg" xmlns:xlink="http://www.w3.org/1999/xlink" width="500" zoomAndPan="magnify" viewBox="0 0 375 374.999991" height="500" preserveAspectRatio="xMidYMid meet" version="1.0"><defs><g/><clipPath id="4749757c4b"><rect x="0" width="264" y="0" height="155"/></clipPath><clipPath id="47b07b6faa"><path d="M 7.0625 161.648438 L 74.203125 161.648438 L 74.203125 228.789062 L 7.0625 228.789062 Z M 7.0625 161.648438 " clip-rule="nonzero"/></clipPath><clipPath id="5ba60f6073"><path d="M 0.0625 0.648438 L 67.203125 0.648438 L 67.203125 67.789062 L 0.0625 67.789062 Z M 0.0625 0.648438 " clip-rule="nonzero"/></clipPath><clipPath id="dc5daf3647"><rect x="0" width="68" y="0" height="68"/></clipPath></defs><g transform="matrix(1, 0, 0, 1, 104, 110)"><g clip-path="url(#4749757c4b)"><g fill="#000000" fill-opacity="1"><g transform="translate(1.510699, 120.587888)"><g><path d="M 6.203125 -40.96875 C 6.203125 -47.050781 7.039062 -52.6875 8.71875 -57.875 C 10.394531 -63.0625 12.8125 -67.546875 15.96875 -71.328125 C 19.132812 -75.117188 23.019531 -78.066406 27.625 -80.171875 C 32.226562 -82.285156 37.457031 -83.34375 43.3125 -83.34375 C 49.15625 -83.34375 54.378906 -82.285156 58.984375 -80.171875 C 63.585938 -78.066406 67.46875 -75.117188 70.625 -71.328125 C 73.789062 -67.546875 76.210938 -63.0625 77.890625 -57.875 C 79.566406 -52.6875 80.40625 -47.050781 80.40625 -40.96875 C 80.40625 -34.882812 79.566406 -29.242188 77.890625 -24.046875 C 76.210938 -18.859375 73.789062 -14.375 70.625 -10.59375 C 67.46875 -6.8125 63.585938 -3.863281 58.984375 -1.75 C 54.378906 0.351562 49.15625 1.40625 43.3125 1.40625 C 37.457031 1.40625 32.226562 0.351562 27.625 -1.75 C 23.019531 -3.863281 19.132812 -6.8125 15.96875 -10.59375 C 12.8125 -14.375 10.394531 -18.859375 8.71875 -24.046875 C 7.039062 -29.242188 6.203125 -34.882812 6.203125 -40.96875 Z M 18.734375 -40.96875 C 18.734375 -35.96875 19.257812 -31.265625 20.3125 -26.859375 C 21.363281 -22.453125 22.941406 -18.609375 25.046875 -15.328125 C 27.148438 -12.054688 29.800781 -9.460938 33 -7.546875 C 36.207031 -5.640625 39.992188 -4.6875 44.359375 -4.6875 C 48.335938 -4.6875 51.804688 -5.640625 54.765625 -7.546875 C 57.734375 -9.460938 60.175781 -12.054688 62.09375 -15.328125 C 64.007812 -18.609375 65.453125 -22.453125 66.421875 -26.859375 C 67.398438 -31.265625 67.890625 -35.96875 67.890625 -40.96875 C 67.890625 -45.957031 67.378906 -50.65625 66.359375 -55.0625 C 65.347656 -59.476562 63.785156 -63.320312 61.671875 -66.59375 C 59.566406 -69.875 56.914062 -72.46875 53.71875 -74.375 C 50.519531 -76.289062 46.738281 -77.25 42.375 -77.25 C 38.082031 -77.25 34.429688 -76.289062 31.421875 -74.375 C 28.421875 -72.46875 25.984375 -69.875 24.109375 -66.59375 C 22.234375 -63.320312 20.867188 -59.476562 20.015625 -55.0625 C 19.160156 -50.65625 18.734375 -45.957031 18.734375 -40.96875 Z M 18.734375 -40.96875 "/></g></g></g><g fill="#000000" fill-opacity="1"><g transform="translate(88.12157, 120.587888)"><g><path d="M 34.53125 -13.34375 C 34.53125 -15.53125 33.847656 -17.382812 32.484375 -18.90625 C 31.117188 -20.425781 29.378906 -21.847656 27.265625 -23.171875 C 25.160156 -24.503906 22.914062 -25.789062 20.53125 -27.03125 C 18.15625 -28.28125 15.914062 -29.742188 13.8125 -31.421875 C 11.707031 -33.097656 9.96875 -35.03125 8.59375 -37.21875 C 7.226562 -39.40625 6.546875 -42.097656 6.546875 -45.296875 C 6.546875 -47.398438 7.035156 -49.347656 8.015625 -51.140625 C 8.992188 -52.941406 10.300781 -54.484375 11.9375 -55.765625 C 13.570312 -57.054688 15.484375 -58.070312 17.671875 -58.8125 C 19.859375 -59.550781 22.203125 -59.921875 24.703125 -59.921875 C 28.910156 -59.921875 32.359375 -59.6875 35.046875 -59.21875 C 37.742188 -58.75 40.34375 -58.085938 42.84375 -57.234375 C 42.53125 -54.734375 42.15625 -52.210938 41.71875 -49.671875 C 41.289062 -47.140625 40.6875 -44.550781 39.90625 -41.90625 L 36.984375 -41.90625 L 32.53125 -53.84375 C 31.601562 -54.226562 30.550781 -54.476562 29.375 -54.59375 C 28.207031 -54.71875 27 -54.78125 25.75 -54.78125 C 24.34375 -54.78125 23.113281 -54.523438 22.0625 -54.015625 C 21.007812 -53.503906 20.113281 -52.859375 19.375 -52.078125 C 18.632812 -51.304688 18.066406 -50.410156 17.671875 -49.390625 C 17.285156 -48.378906 17.09375 -47.363281 17.09375 -46.34375 C 17.09375 -44.238281 17.773438 -42.425781 19.140625 -40.90625 C 20.503906 -39.382812 22.238281 -37.976562 24.34375 -36.6875 C 26.445312 -35.40625 28.6875 -34.140625 31.0625 -32.890625 C 33.445312 -31.640625 35.691406 -30.234375 37.796875 -28.671875 C 39.910156 -27.109375 41.648438 -25.289062 43.015625 -23.21875 C 44.378906 -21.15625 45.0625 -18.679688 45.0625 -15.796875 C 45.0625 -13.148438 44.492188 -10.769531 43.359375 -8.65625 C 42.234375 -6.550781 40.675781 -4.753906 38.6875 -3.265625 C 36.695312 -1.785156 34.394531 -0.640625 31.78125 0.171875 C 29.164062 0.992188 26.375 1.40625 23.40625 1.40625 C 20.050781 1.40625 16.96875 1.113281 14.15625 0.53125 C 11.351562 -0.0507812 8.429688 -0.890625 5.390625 -1.984375 C 5.546875 -4.796875 5.894531 -7.507812 6.4375 -10.125 C 6.976562 -12.738281 7.679688 -15.253906 8.546875 -17.671875 L 11.46875 -17.671875 L 16.625 -4.921875 C 17.476562 -4.296875 18.507812 -3.941406 19.71875 -3.859375 C 20.925781 -3.785156 22.039062 -3.75 23.0625 -3.75 C 26.488281 -3.75 29.253906 -4.679688 31.359375 -6.546875 C 33.472656 -8.421875 34.53125 -10.6875 34.53125 -13.34375 Z M 34.53125 -13.34375 "/></g></g></g><g fill="#000000" fill-opacity="1"><g transform="translate(138.800632, 120.587888)"><g><path d="M 35.109375 -58.515625 L 57.703125 -58.515625 L 57.703125 -55.484375 C 56.222656 -54.859375 54.757812 -54.3125 53.3125 -53.84375 C 51.875 -53.375 50.375 -52.984375 48.8125 -52.671875 C 47.632812 -51.109375 46.285156 -49.429688 44.765625 -47.640625 C 43.242188 -45.847656 41.703125 -44.050781 40.140625 -42.25 C 38.585938 -40.457031 37.085938 -38.78125 35.640625 -37.21875 C 34.191406 -35.65625 32.960938 -34.367188 31.953125 -33.359375 C 33.117188 -31.796875 34.539062 -29.898438 36.21875 -27.671875 C 37.90625 -25.453125 39.722656 -23.09375 41.671875 -20.59375 C 43.617188 -18.101562 45.625 -15.566406 47.6875 -12.984375 C 49.757812 -10.410156 51.8125 -7.992188 53.84375 -5.734375 L 60.390625 -2.921875 L 60.390625 0 L 45.875 0 L 42.71875 -2.8125 C 38.582031 -7.957031 35.148438 -12.539062 32.421875 -16.5625 C 29.691406 -20.582031 27.195312 -24.347656 24.9375 -27.859375 L 21.0625 -29.03125 L 21.0625 -5.734375 C 23.644531 -5.265625 26.179688 -4.328125 28.671875 -2.921875 L 28.671875 0 L 2.8125 0 L 2.8125 -2.921875 C 5.382812 -4.171875 7.957031 -5.109375 10.53125 -5.734375 L 10.53125 -79.828125 L 1.640625 -80.765625 L 1.640625 -83.8125 C 3.828125 -84.820312 6.441406 -85.640625 9.484375 -86.265625 C 12.523438 -86.890625 15.410156 -87.472656 18.140625 -88.015625 L 21.0625 -88.015625 L 21.0625 -32.078125 L 24.109375 -32.078125 C 25.359375 -33.472656 26.722656 -35.03125 28.203125 -36.75 C 29.691406 -38.46875 31.175781 -40.242188 32.65625 -42.078125 C 34.132812 -43.910156 35.578125 -45.722656 36.984375 -47.515625 C 38.390625 -49.316406 39.675781 -51.035156 40.84375 -52.671875 C 38.894531 -53.210938 36.984375 -54.148438 35.109375 -55.484375 Z M 35.109375 -58.515625 "/></g></g></g><g fill="#000000" fill-opacity="1"><g transform="translate(197.789585, 120.587888)"><g><path d="M 4.796875 -29.265625 C 4.796875 -34.179688 5.4375 -38.53125 6.71875 -42.3125 C 8.007812 -46.09375 9.863281 -49.289062 12.28125 -51.90625 C 14.707031 -54.519531 17.613281 -56.507812 21 -57.875 C 24.394531 -59.238281 28.164062 -59.921875 32.3125 -59.921875 C 37.144531 -59.921875 41.316406 -59.179688 44.828125 -57.703125 C 48.335938 -56.222656 51.203125 -54.132812 53.421875 -51.4375 C 55.648438 -48.75 57.289062 -45.53125 58.34375 -41.78125 C 59.394531 -38.039062 59.921875 -33.867188 59.921875 -29.265625 C 59.921875 -19.429688 57.425781 -11.859375 52.4375 -6.546875 C 47.445312 -1.242188 40.738281 1.40625 32.3125 1.40625 C 27.625 1.40625 23.5625 0.6875 20.125 -0.75 C 16.695312 -2.195312 13.847656 -4.265625 11.578125 -6.953125 C 9.316406 -9.648438 7.617188 -12.890625 6.484375 -16.671875 C 5.359375 -20.460938 4.796875 -24.660156 4.796875 -29.265625 Z M 16.03125 -29.265625 C 16.03125 -25.753906 16.363281 -22.4375 17.03125 -19.3125 C 17.695312 -16.1875 18.75 -13.472656 20.1875 -11.171875 C 21.632812 -8.867188 23.523438 -7.054688 25.859375 -5.734375 C 28.203125 -4.410156 31.015625 -3.75 34.296875 -3.75 C 38.503906 -3.75 41.953125 -5.816406 44.640625 -9.953125 C 47.335938 -14.085938 48.6875 -20.523438 48.6875 -29.265625 C 48.6875 -32.847656 48.351562 -36.179688 47.6875 -39.265625 C 47.03125 -42.347656 46 -45.039062 44.59375 -47.34375 C 43.1875 -49.644531 41.390625 -51.457031 39.203125 -52.78125 C 37.023438 -54.113281 34.414062 -54.78125 31.375 -54.78125 C 26.769531 -54.78125 23.0625 -52.710938 20.25 -48.578125 C 17.4375 -44.441406 16.03125 -38.003906 16.03125 -29.265625 Z M 16.03125 -29.265625 "/></g></g></g></g></g><g clip-path="url(#47b07b6faa)"><g transform="matrix(1, 0, 0, 1, 7, 161)"><g clip-path="url(#dc5daf3647)"><g clip-path="url(#5ba60f6073)"><path fill="#ed815e" d="M 0.0625 0.648438 L 67.203125 0.648438 L 67.203125 67.789062 L 0.0625 67.789062 Z M 0.0625 0.648438 " fill-opacity="1" fill-rule="nonzero"/></g></g></g></g></svg>