<svg xmlns="http://www.w3.org/2000/svg" xmlns:xlink="http://www.w3.org/1999/xlink" width="500" zoomAndPan="magnify" viewBox="0 0 375 374.999991" height="500" preserveAspectRatio="xMidYMid meet" version="1.2"><defs><clipPath id="eb2fab2bfa"><path d="M 6 0 L 369 0 C 372.3125 0 375 2.6875 375 6 L 375 369 C 375 372.3125 372.3125 375 369 375 L 6 375 C 2.6875 375 0 372.3125 0 369 L 0 6 C 0 2.6875 2.6875 0 6 0 Z M 6 0 "/></clipPath><clipPath id="777d976e6a"><path d="M 6 0 L 369 0 C 372.3125 0 375 2.6875 375 6 L 375 369 C 375 372.3125 372.3125 375 369 375 L 6 375 C 2.6875 375 0 372.3125 0 369 L 0 6 C 0 2.6875 2.6875 0 6 0 Z M 6 0 "/></clipPath><clipPath id="664a006d81"><rect x="0" width="375" y="0" height="375"/></clipPath></defs><g id="bc437c7cc4"><rect x="0" width="375" y="0" height="374.999991" style="fill:#ffffff;fill-opacity:1;stroke:none;"/><rect x="0" width="375" y="0" height="374.999991" style="fill:#ffffff;fill-opacity:1;stroke:none;"/><g clip-rule="nonzero" clip-path="url(#eb2fab2bfa)"><g transform="matrix(1,0,0,1,0,0)"><g clip-path="url(#664a006d81)"><g clip-rule="nonzero" clip-path="url(#777d976e6a)"><rect x="0" width="375" height="375" y="0" style="fill:#0275de;fill-opacity:1;stroke:none;"/></g></g></g></g></g></svg>